<?xml version="1.0" encoding="UTF-8" standalone="no"?>
<!DOCTYPE svg PUBLIC "-//W3C//DTD SVG 1.1//EN"
 "http://www.w3.org/Graphics/SVG/1.1/DTD/svg11.dtd">
<!-- Generated by graphviz version 2.43.0 (0)
 -->
<!-- Title: void export(java.lang.String) Pages: 1 -->
<svg width="5212pt" height="1767pt"
 viewBox="0.00 0.00 5211.50 1767.00" xmlns="http://www.w3.org/2000/svg" xmlns:xlink="http://www.w3.org/1999/xlink">
<g id="graph0" class="graph" transform="scale(1 1) rotate(0) translate(4 1763)">
<title>void export(java.lang.String)</title>
<polygon fill="white" stroke="transparent" points="-4,4 -4,-1763 5207.5,-1763 5207.5,4 -4,4"/>
<text text-anchor="middle" x="2601.75" y="-7.8" font-family="Times,serif" font-size="14.00">void export(java.lang.String)</text>
<!-- 0 -->
<g id="node1" class="node">
<title>0</title>
<polygon fill="gray" stroke="black" points="3118,-1759 2675,-1759 2675,-1481 3118,-1481 3118,-1759"/>
<text text-anchor="middle" x="2896.5" y="-1743.8" font-family="Times,serif" font-size="14.00">Block #0</text>
<text text-anchor="middle" x="2896.5" y="-1728.8" font-family="Times,serif" font-size="14.00">Entry</text>
<text text-anchor="start" x="2683" y="-1713.8" font-family="Times,serif" font-size="14.00">java.lang.Throwable $r21, $r22;</text>
<text text-anchor="start" x="2683" y="-1698.8" font-family="Times,serif" font-size="14.00">java.sql.Connection $r4;</text>
<text text-anchor="start" x="2683" y="-1683.8" font-family="Times,serif" font-size="14.00">java.sql.SQLException $r19;</text>
<text text-anchor="start" x="2683" y="-1668.8" font-family="Times,serif" font-size="14.00">java.sql.ResultSet $r8;</text>
<text text-anchor="start" x="2683" y="-1653.8" font-family="Times,serif" font-size="14.00">int $i0, i1;</text>
<text text-anchor="start" x="2683" y="-1638.8" font-family="Times,serif" font-size="14.00">java.lang.String r1, $r2, $r3, $r5, $r6, $r15, $r16, r23, r24;</text>
<text text-anchor="start" x="2683" y="-1623.8" font-family="Times,serif" font-size="14.00">boolean $z0, $z1;</text>
<text text-anchor="start" x="2683" y="-1608.8" font-family="Times,serif" font-size="14.00">java.io.PrintStream $r18, $r20;</text>
<text text-anchor="start" x="2683" y="-1593.8" font-family="Times,serif" font-size="14.00">java.io.BufferedWriter $r9, $r11, $r12, $r13;</text>
<text text-anchor="start" x="2683" y="-1578.8" font-family="Times,serif" font-size="14.00">java.io.FileWriter $r10;</text>
<text text-anchor="start" x="2683" y="-1563.8" font-family="Times,serif" font-size="14.00">java.io.IOException $r17;</text>
<text text-anchor="start" x="2683" y="-1548.8" font-family="Times,serif" font-size="14.00">java.sql.Statement $r7;</text>
<text text-anchor="start" x="2683" y="-1533.8" font-family="Times,serif" font-size="14.00">java.lang.Object $r14;</text>
<text text-anchor="start" x="2683" y="-1518.8" font-family="Times,serif" font-size="14.00">db2csv.DB2CsvExporter r0;</text>
<text text-anchor="start" x="2683" y="-1503.8" font-family="Times,serif" font-size="14.00">r0 := @this: db2csv.DB2CsvExporter;</text>
<text text-anchor="start" x="2683" y="-1488.8" font-family="Times,serif" font-size="14.00">r1 := @parameter0: java.lang.String;</text>
</g>
<!-- 1 -->
<g id="node2" class="node">
<title>1</title>
<polygon fill="none" stroke="black" points="3582.5,-1445 2210.5,-1445 2210.5,-1392 3582.5,-1392 3582.5,-1445"/>
<text text-anchor="middle" x="2896.5" y="-1429.8" font-family="Times,serif" font-size="14.00">Block #1</text>
<text text-anchor="middle" x="2896.5" y="-1414.8" font-family="Times,serif" font-size="14.00">label1:</text>
<text text-anchor="start" x="2218.5" y="-1399.8" font-family="Times,serif" font-size="14.00">$r4 = staticinvoke &lt;java.sql.DriverManager: java.sql.Connection getConnection(java.lang.String,java.lang.String,java.lang.String)&gt;(&quot;jdbc:mysql://localhost:3306/tus&quot;, &quot;mabel&quot;, &quot;fff301155&quot;);</text>
</g>
<!-- 0&#45;&gt;1 -->
<g id="edge1" class="edge">
<title>0&#45;&gt;1</title>
<path fill="none" stroke="black" d="M2896.5,-1480.98C2896.5,-1471.77 2896.5,-1463.07 2896.5,-1455.28"/>
<polygon fill="black" stroke="black" points="2900,-1455.24 2896.5,-1445.24 2893,-1455.24 2900,-1455.24"/>
</g>
<!-- 2 -->
<g id="node3" class="node">
<title>2</title>
<polygon fill="none" stroke="black" points="3504.5,-1356 2288.5,-1356 2288.5,-1183 3504.5,-1183 3504.5,-1356"/>
<text text-anchor="middle" x="2896.5" y="-1340.8" font-family="Times,serif" font-size="14.00">Block #2</text>
<text text-anchor="middle" x="2896.5" y="-1325.8" font-family="Times,serif" font-size="14.00">label2:</text>
<text text-anchor="start" x="2296.5" y="-1310.8" font-family="Times,serif" font-size="14.00">$r5 = &quot;SELECT * FROM &quot;;</text>
<text text-anchor="start" x="2296.5" y="-1295.8" font-family="Times,serif" font-size="14.00">$r6 = virtualinvoke $r5.&lt;java.lang.String: java.lang.String concat(java.lang.String)&gt;(r1);</text>
<text text-anchor="start" x="2296.5" y="-1280.8" font-family="Times,serif" font-size="14.00">$r7 = interfaceinvoke $r4.&lt;java.sql.Connection: java.sql.Statement createStatement()&gt;();</text>
<text text-anchor="start" x="2296.5" y="-1265.8" font-family="Times,serif" font-size="14.00">$r8 = interfaceinvoke $r7.&lt;java.sql.Statement: java.sql.ResultSet executeQuery(java.lang.String)&gt;($r6);</text>
<text text-anchor="start" x="2296.5" y="-1250.8" font-family="Times,serif" font-size="14.00">$r9 = new java.io.BufferedWriter;</text>
<text text-anchor="start" x="2296.5" y="-1235.8" font-family="Times,serif" font-size="14.00">$r10 = new java.io.FileWriter;</text>
<text text-anchor="start" x="2296.5" y="-1220.8" font-family="Times,serif" font-size="14.00">specialinvoke $r10.&lt;java.io.FileWriter: void &lt;init&gt;(java.lang.String)&gt;($r3);</text>
<text text-anchor="start" x="2296.5" y="-1205.8" font-family="Times,serif" font-size="14.00">specialinvoke $r9.&lt;java.io.BufferedWriter: void &lt;init&gt;(java.io.Writer)&gt;($r10);</text>
<text text-anchor="start" x="2296.5" y="-1190.8" font-family="Times,serif" font-size="14.00">r0.&lt;db2csv.DB2CsvExporter: java.io.BufferedWriter fileWriter&gt; = $r9;$i0 = virtualinvoke r0.&lt;db2csv.DB2CsvExporter: int writeHeaderLine(java.sql.ResultSet)&gt;($r8);</text>
</g>
<!-- 1&#45;&gt;2 -->
<g id="edge2" class="edge">
<title>1&#45;&gt;2</title>
<path fill="none" stroke="black" d="M2896.5,-1391.89C2896.5,-1384.34 2896.5,-1375.6 2896.5,-1366.33"/>
<polygon fill="black" stroke="black" points="2900,-1366.1 2896.5,-1356.1 2893,-1366.1 2900,-1366.1"/>
</g>
<!-- 3 -->
<g id="node4" class="node">
<title>3</title>
<polygon fill="none" stroke="black" points="3139.5,-1147 2653.5,-1147 2653.5,-1079 3139.5,-1079 3139.5,-1147"/>
<text text-anchor="middle" x="2896.5" y="-1131.8" font-family="Times,serif" font-size="14.00">Block #3</text>
<text text-anchor="middle" x="2896.5" y="-1116.8" font-family="Times,serif" font-size="14.00">label3:</text>
<text text-anchor="start" x="2661.5" y="-1101.8" font-family="Times,serif" font-size="14.00">$z0 = interfaceinvoke $r8.&lt;java.sql.ResultSet: boolean next()&gt;();</text>
<text text-anchor="start" x="2661.5" y="-1086.8" font-family="Times,serif" font-size="14.00">if $z0 == 0 goto label09;</text>
</g>
<!-- 2&#45;&gt;3 -->
<g id="edge3" class="edge">
<title>2&#45;&gt;3</title>
<path fill="none" stroke="black" d="M2896.5,-1182.67C2896.5,-1173.88 2896.5,-1165.24 2896.5,-1157.21"/>
<polygon fill="black" stroke="black" points="2900,-1157.05 2896.5,-1147.05 2893,-1157.05 2900,-1157.05"/>
</g>
<!-- 4 -->
<g id="node5" class="node">
<title>4</title>
<polygon fill="none" stroke="black" points="2843,-1028 2762,-1028 2762,-975 2843,-975 2843,-1028"/>
<text text-anchor="middle" x="2802.5" y="-1012.8" font-family="Times,serif" font-size="14.00">Block #4</text>
<text text-anchor="start" x="2770" y="-997.8" font-family="Times,serif" font-size="14.00">r23 = &quot;&quot;;</text>
<text text-anchor="start" x="2770" y="-982.8" font-family="Times,serif" font-size="14.00">i1 = 2;</text>
</g>
<!-- 3&#45;&gt;4 -->
<g id="edge4" class="edge">
<title>3&#45;&gt;4</title>
<path fill="none" stroke="black" d="M2868.04,-1078.85C2856.39,-1065.27 2842.92,-1049.59 2831.24,-1035.98"/>
<polygon fill="black" stroke="black" points="2833.76,-1033.54 2824.59,-1028.24 2828.45,-1038.1 2833.76,-1033.54"/>
</g>
<!-- 14 -->
<g id="node6" class="node">
<title>14</title>
<polygon fill="none" stroke="black" points="3458,-1043 2925,-1043 2925,-960 3458,-960 3458,-1043"/>
<text text-anchor="middle" x="3191.5" y="-1027.8" font-family="Times,serif" font-size="14.00">Block #14</text>
<text text-anchor="middle" x="3191.5" y="-1012.8" font-family="Times,serif" font-size="14.00">label9:</text>
<text text-anchor="start" x="2933" y="-997.8" font-family="Times,serif" font-size="14.00">interfaceinvoke $r7.&lt;java.sql.Statement: void close()&gt;();</text>
<text text-anchor="start" x="2933" y="-982.8" font-family="Times,serif" font-size="14.00">$r11 = r0.&lt;db2csv.DB2CsvExporter: java.io.BufferedWriter fileWriter&gt;;</text>
<text text-anchor="start" x="2933" y="-967.8" font-family="Times,serif" font-size="14.00">virtualinvoke $r11.&lt;java.io.BufferedWriter: void close()&gt;();</text>
</g>
<!-- 3&#45;&gt;14 -->
<g id="edge5" class="edge">
<title>3&#45;&gt;14</title>
<path fill="none" stroke="black" d="M2985.41,-1079C3012.89,-1068.8 3043.61,-1057.4 3072.76,-1046.57"/>
<polygon fill="black" stroke="black" points="3074.01,-1049.84 3082.17,-1043.08 3071.58,-1043.28 3074.01,-1049.84"/>
</g>
<!-- 5 -->
<g id="node7" class="node">
<title>5</title>
<polygon fill="none" stroke="black" points="2866,-916.5 2681,-916.5 2681,-863.5 2866,-863.5 2866,-916.5"/>
<text text-anchor="middle" x="2773.5" y="-901.3" font-family="Times,serif" font-size="14.00">Block #5</text>
<text text-anchor="middle" x="2773.5" y="-886.3" font-family="Times,serif" font-size="14.00">label4:</text>
<text text-anchor="start" x="2689" y="-871.3" font-family="Times,serif" font-size="14.00">if i1 &gt; $i0 goto label08;</text>
</g>
<!-- 4&#45;&gt;5 -->
<g id="edge6" class="edge">
<title>4&#45;&gt;5</title>
<path fill="none" stroke="black" d="M2795.7,-974.83C2791.88,-960.41 2787.06,-942.21 2782.89,-926.45"/>
<polygon fill="black" stroke="black" points="2786.2,-925.28 2780.26,-916.51 2779.43,-927.07 2786.2,-925.28"/>
</g>
<!-- 15 -->
<g id="node16" class="node">
<title>15</title>
<polygon fill="none" stroke="black" points="3646,-916.5 3433,-916.5 3433,-863.5 3646,-863.5 3646,-916.5"/>
<text text-anchor="middle" x="3539.5" y="-901.3" font-family="Times,serif" font-size="14.00">Block #15</text>
<text text-anchor="middle" x="3539.5" y="-886.3" font-family="Times,serif" font-size="14.00">label10:</text>
<text text-anchor="start" x="3441" y="-871.3" font-family="Times,serif" font-size="14.00">if $r4 == null goto label16;</text>
</g>
<!-- 14&#45;&gt;15 -->
<g id="edge20" class="edge">
<title>14&#45;&gt;15</title>
<path fill="none" stroke="black" d="M3320.59,-959.88C3363.12,-946.5 3409.49,-931.91 3448.56,-919.61"/>
<polygon fill="black" stroke="black" points="3449.84,-922.88 3458.33,-916.54 3447.74,-916.2 3449.84,-922.88"/>
</g>
<!-- 6 -->
<g id="node8" class="node">
<title>6</title>
<polygon fill="none" stroke="black" points="2573.5,-797.5 1947.5,-797.5 1947.5,-729.5 2573.5,-729.5 2573.5,-797.5"/>
<text text-anchor="middle" x="2260.5" y="-782.3" font-family="Times,serif" font-size="14.00">Block #6</text>
<text text-anchor="start" x="1955.5" y="-767.3" font-family="Times,serif" font-size="14.00">$r14 = interfaceinvoke $r8.&lt;java.sql.ResultSet: java.lang.Object getObject(int)&gt;(i1);</text>
<text text-anchor="start" x="1955.5" y="-752.3" font-family="Times,serif" font-size="14.00">r24 = &quot;&quot;;</text>
<text text-anchor="start" x="1955.5" y="-737.3" font-family="Times,serif" font-size="14.00">if $r14 == null goto label05;</text>
</g>
<!-- 5&#45;&gt;6 -->
<g id="edge7" class="edge">
<title>5&#45;&gt;6</title>
<path fill="none" stroke="black" d="M2680.9,-866.53C2604.54,-847.99 2494.83,-821.37 2406.64,-799.97"/>
<polygon fill="black" stroke="black" points="2407.36,-796.54 2396.81,-797.58 2405.71,-803.34 2407.36,-796.54"/>
</g>
<!-- 13 -->
<g id="node9" class="node">
<title>13</title>
<polygon fill="none" stroke="black" points="3211,-820 2630,-820 2630,-707 3211,-707 3211,-820"/>
<text text-anchor="middle" x="2920.5" y="-804.8" font-family="Times,serif" font-size="14.00">Block #13</text>
<text text-anchor="middle" x="2920.5" y="-789.8" font-family="Times,serif" font-size="14.00">label8:</text>
<text text-anchor="start" x="2638" y="-774.8" font-family="Times,serif" font-size="14.00">$r12 = r0.&lt;db2csv.DB2CsvExporter: java.io.BufferedWriter fileWriter&gt;;</text>
<text text-anchor="start" x="2638" y="-759.8" font-family="Times,serif" font-size="14.00">virtualinvoke $r12.&lt;java.io.BufferedWriter: void newLine()&gt;();</text>
<text text-anchor="start" x="2638" y="-744.8" font-family="Times,serif" font-size="14.00">$r13 = r0.&lt;db2csv.DB2CsvExporter: java.io.BufferedWriter fileWriter&gt;;</text>
<text text-anchor="start" x="2638" y="-729.8" font-family="Times,serif" font-size="14.00">virtualinvoke $r13.&lt;java.io.BufferedWriter: void write(java.lang.String)&gt;(r23);</text>
<text text-anchor="start" x="2638" y="-714.8" font-family="Times,serif" font-size="14.00">goto label03;</text>
</g>
<!-- 5&#45;&gt;13 -->
<g id="edge8" class="edge">
<title>5&#45;&gt;13</title>
<path fill="none" stroke="black" d="M2803.96,-863.2C2816.56,-852.53 2831.77,-839.65 2846.99,-826.76"/>
<polygon fill="black" stroke="black" points="2849.56,-829.17 2854.93,-820.04 2845.03,-823.83 2849.56,-829.17"/>
</g>
<!-- 7 -->
<g id="node10" class="node">
<title>7</title>
<polygon fill="none" stroke="black" points="2384,-633.5 1833,-633.5 1833,-595.5 2384,-595.5 2384,-633.5"/>
<text text-anchor="middle" x="2108.5" y="-618.3" font-family="Times,serif" font-size="14.00">Block #7</text>
<text text-anchor="start" x="1841" y="-603.3" font-family="Times,serif" font-size="14.00">r24 = virtualinvoke $r14.&lt;java.lang.Object: java.lang.String toString()&gt;();</text>
</g>
<!-- 6&#45;&gt;7 -->
<g id="edge9" class="edge">
<title>6&#45;&gt;7</title>
<path fill="none" stroke="black" d="M2226.01,-729.14C2198.23,-702.27 2159.77,-665.08 2134.52,-640.67"/>
<polygon fill="black" stroke="black" points="2136.76,-637.96 2127.14,-633.53 2131.9,-643 2136.76,-637.96"/>
</g>
<!-- 8 -->
<g id="node11" class="node">
<title>8</title>
<polygon fill="none" stroke="black" points="2339.5,-499.5 2041.5,-499.5 2041.5,-431.5 2339.5,-431.5 2339.5,-499.5"/>
<text text-anchor="middle" x="2190.5" y="-484.3" font-family="Times,serif" font-size="14.00">Block #8</text>
<text text-anchor="middle" x="2190.5" y="-469.3" font-family="Times,serif" font-size="14.00">label5:</text>
<text text-anchor="start" x="2049.5" y="-454.3" font-family="Times,serif" font-size="14.00">$z1 = $r14 instanceof java.lang.String;</text>
<text text-anchor="start" x="2049.5" y="-439.3" font-family="Times,serif" font-size="14.00">if $z1 == 0 goto label06;</text>
</g>
<!-- 6&#45;&gt;8 -->
<g id="edge10" class="edge">
<title>6&#45;&gt;8</title>
<path fill="none" stroke="black" d="M2333.4,-729.5C2356.6,-715.07 2379.57,-695.7 2392.5,-671 2415.8,-626.51 2419.72,-600.21 2392.5,-558 2377.45,-534.66 2354.84,-517.21 2330.13,-504.18"/>
<polygon fill="black" stroke="black" points="2331.45,-500.92 2320.94,-499.57 2328.31,-507.18 2331.45,-500.92"/>
</g>
<!-- 13&#45;&gt;3 -->
<g id="edge19" class="edge">
<title>13&#45;&gt;3</title>
<path fill="none" stroke="black" d="M2916.65,-820.28C2911.87,-889.43 2903.83,-1005.82 2899.49,-1068.65"/>
<polygon fill="black" stroke="black" points="2895.98,-1068.78 2898.78,-1078.99 2902.96,-1069.26 2895.98,-1068.78"/>
</g>
<!-- 7&#45;&gt;8 -->
<g id="edge11" class="edge">
<title>7&#45;&gt;8</title>
<path fill="none" stroke="black" d="M2118.55,-595.47C2130.56,-573.96 2151.02,-537.28 2167.06,-508.53"/>
<polygon fill="black" stroke="black" points="2170.28,-509.94 2172.09,-499.5 2164.16,-506.53 2170.28,-509.94"/>
</g>
<!-- 9 -->
<g id="node12" class="node">
<title>9</title>
<polygon fill="none" stroke="black" points="2363,-373 0,-373 0,-320 2363,-320 2363,-373"/>
<text text-anchor="middle" x="1181.5" y="-357.8" font-family="Times,serif" font-size="14.00">Block #9</text>
<text text-anchor="start" x="8" y="-342.8" font-family="Times,serif" font-size="14.00">$r16 = virtualinvoke r0.&lt;db2csv.DB2CsvExporter: java.lang.String escapeDoubleQuotes(java.lang.String)&gt;(r24);</text>
<text text-anchor="start" x="8" y="-327.8" font-family="Times,serif" font-size="14.00">r24 = dynamicinvoke &quot;makeConcatWithConstants&quot; &lt;java.lang.String (java.lang.String)&gt;($r16) &lt;java.lang.invoke.StringConcatFactory: java.lang.invoke.CallSite makeConcatWithConstants(java.lang.invoke.MethodHandles$Lookup,java.lang.String,java.lang.invoke.MethodType,java.lang.String,java.lang.Object[])&gt;(&quot;\&quot;\u0001\&quot;&quot;);</text>
</g>
<!-- 8&#45;&gt;9 -->
<g id="edge12" class="edge">
<title>8&#45;&gt;9</title>
<path fill="none" stroke="black" d="M2041.35,-447.2C1875.33,-427.95 1605.03,-396.61 1411.8,-374.2"/>
<polygon fill="black" stroke="black" points="1412.13,-370.72 1401.79,-373.04 1411.32,-377.67 1412.13,-370.72"/>
</g>
<!-- 10 -->
<g id="node13" class="node">
<title>10</title>
<polygon fill="none" stroke="black" points="2556,-284 1881,-284 1881,-201 2556,-201 2556,-284"/>
<text text-anchor="middle" x="2218.5" y="-268.8" font-family="Times,serif" font-size="14.00">Block #10</text>
<text text-anchor="middle" x="2218.5" y="-253.8" font-family="Times,serif" font-size="14.00">label6:</text>
<text text-anchor="start" x="1889" y="-238.8" font-family="Times,serif" font-size="14.00">$r15 = virtualinvoke r23.&lt;java.lang.String: java.lang.String concat(java.lang.String)&gt;(r24);</text>
<text text-anchor="start" x="1889" y="-223.8" font-family="Times,serif" font-size="14.00">r23 = $r15;</text>
<text text-anchor="start" x="1889" y="-208.8" font-family="Times,serif" font-size="14.00">if i1 == $i0 goto label07;</text>
</g>
<!-- 8&#45;&gt;10 -->
<g id="edge13" class="edge">
<title>8&#45;&gt;10</title>
<path fill="none" stroke="black" d="M2302.49,-431.4C2329.71,-417.8 2355.54,-398.94 2371.5,-373 2383.84,-352.94 2383.88,-340.04 2371.5,-320 2364.41,-308.53 2355.02,-298.71 2344.36,-290.34"/>
<polygon fill="black" stroke="black" points="2346.13,-287.29 2335.99,-284.21 2341.99,-292.94 2346.13,-287.29"/>
</g>
<!-- 9&#45;&gt;10 -->
<g id="edge14" class="edge">
<title>9&#45;&gt;10</title>
<path fill="none" stroke="black" d="M1440.84,-319.99C1570.9,-307.2 1730.25,-291.52 1870.76,-277.7"/>
<polygon fill="black" stroke="black" points="1871.23,-281.17 1880.84,-276.71 1870.55,-274.21 1871.23,-281.17"/>
</g>
<!-- 11 -->
<g id="node14" class="node">
<title>11</title>
<polygon fill="none" stroke="black" points="2535.5,-165 1867.5,-165 1867.5,-127 2535.5,-127 2535.5,-165"/>
<text text-anchor="middle" x="2201.5" y="-149.8" font-family="Times,serif" font-size="14.00">Block #11</text>
<text text-anchor="start" x="1875.5" y="-134.8" font-family="Times,serif" font-size="14.00">r23 = virtualinvoke $r15.&lt;java.lang.String: java.lang.String concat(java.lang.String)&gt;(&quot;,&quot;);</text>
</g>
<!-- 10&#45;&gt;11 -->
<g id="edge15" class="edge">
<title>10&#45;&gt;11</title>
<path fill="none" stroke="black" d="M2211.19,-200.88C2209.64,-192.25 2208.03,-183.32 2206.59,-175.28"/>
<polygon fill="black" stroke="black" points="2210.01,-174.53 2204.79,-165.3 2203.12,-175.77 2210.01,-174.53"/>
</g>
<!-- 12 -->
<g id="node15" class="node">
<title>12</title>
<polygon fill="none" stroke="black" points="2618.5,-91 2508.5,-91 2508.5,-23 2618.5,-23 2618.5,-91"/>
<text text-anchor="middle" x="2563.5" y="-75.8" font-family="Times,serif" font-size="14.00">Block #12</text>
<text text-anchor="middle" x="2563.5" y="-60.8" font-family="Times,serif" font-size="14.00">label7:</text>
<text text-anchor="start" x="2516.5" y="-45.8" font-family="Times,serif" font-size="14.00">i1 = i1 + 1;</text>
<text text-anchor="start" x="2516.5" y="-30.8" font-family="Times,serif" font-size="14.00">goto label04;</text>
</g>
<!-- 10&#45;&gt;12 -->
<g id="edge16" class="edge">
<title>10&#45;&gt;12</title>
<path fill="none" stroke="black" d="M2467.7,-200.99C2502.61,-191.03 2531.16,-179.09 2544.5,-165 2560.4,-148.2 2565.43,-122.96 2566.35,-101.21"/>
<polygon fill="black" stroke="black" points="2569.85,-101.24 2566.51,-91.18 2562.85,-101.13 2569.85,-101.24"/>
</g>
<!-- 11&#45;&gt;12 -->
<g id="edge17" class="edge">
<title>11&#45;&gt;12</title>
<path fill="none" stroke="black" d="M2276.51,-126.97C2342.07,-111.22 2436.27,-88.58 2498.63,-73.59"/>
<polygon fill="black" stroke="black" points="2499.45,-76.99 2508.36,-71.25 2497.82,-70.19 2499.45,-76.99"/>
</g>
<!-- 12&#45;&gt;5 -->
<g id="edge18" class="edge">
<title>12&#45;&gt;5</title>
<path fill="none" stroke="black" d="M2574.59,-91.06C2585.81,-127.47 2601.5,-187.98 2601.5,-241.5 2601.5,-615.5 2601.5,-615.5 2601.5,-615.5 2601.5,-706.78 2567.47,-745.7 2620.5,-820 2633.27,-837.89 2651.8,-851.23 2671.59,-861.15"/>
<polygon fill="black" stroke="black" points="2670.22,-864.37 2680.76,-865.47 2673.2,-858.04 2670.22,-864.37"/>
</g>
<!-- 16 -->
<g id="node17" class="node">
<title>16</title>
<polygon fill="none" stroke="black" points="3754,-790 3325,-790 3325,-737 3754,-737 3754,-790"/>
<text text-anchor="middle" x="3539.5" y="-774.8" font-family="Times,serif" font-size="14.00">Block #16</text>
<text text-anchor="start" x="3333" y="-759.8" font-family="Times,serif" font-size="14.00">interfaceinvoke $r4.&lt;java.sql.Connection: void close()&gt;();</text>
<text text-anchor="start" x="3333" y="-744.8" font-family="Times,serif" font-size="14.00">goto label16;</text>
</g>
<!-- 15&#45;&gt;16 -->
<g id="edge21" class="edge">
<title>15&#45;&gt;16</title>
<path fill="none" stroke="black" d="M3539.5,-863.2C3539.5,-845.01 3539.5,-820.4 3539.5,-800.3"/>
<polygon fill="black" stroke="black" points="3543,-800.26 3539.5,-790.26 3536,-800.26 3543,-800.26"/>
</g>
<!-- 22 -->
<g id="node18" class="node">
<title>22</title>
<polygon fill="none" stroke="black" points="3837.5,-641 3727.5,-641 3727.5,-588 3837.5,-588 3837.5,-641"/>
<text text-anchor="middle" x="3782.5" y="-625.8" font-family="Times,serif" font-size="14.00">Block #22</text>
<text text-anchor="middle" x="3782.5" y="-610.8" font-family="Times,serif" font-size="14.00">label16:</text>
<text text-anchor="start" x="3735.5" y="-595.8" font-family="Times,serif" font-size="14.00">goto label19;</text>
</g>
<!-- 15&#45;&gt;22 -->
<g id="edge22" class="edge">
<title>15&#45;&gt;22</title>
<path fill="none" stroke="black" d="M3646.27,-881.41C3689.12,-872.68 3735.02,-855.06 3763.5,-820 3802.32,-772.22 3797.42,-695.87 3790.11,-651.22"/>
<polygon fill="black" stroke="black" points="3793.52,-650.36 3788.33,-641.12 3786.62,-651.58 3793.52,-650.36"/>
</g>
<!-- 16&#45;&gt;22 -->
<g id="edge23" class="edge">
<title>16&#45;&gt;22</title>
<path fill="none" stroke="black" d="M3581.83,-736.89C3623.51,-711.68 3687.22,-673.14 3731.64,-646.27"/>
<polygon fill="black" stroke="black" points="3733.51,-649.23 3740.25,-641.06 3729.88,-643.24 3733.51,-649.23"/>
</g>
<!-- 25 -->
<g id="node24" class="node">
<title>25</title>
<polygon fill="gray" stroke="black" points="4436.5,-522 3948.5,-522 3948.5,-409 4436.5,-409 4436.5,-522"/>
<text text-anchor="middle" x="4192.5" y="-506.8" font-family="Times,serif" font-size="14.00">Block #25</text>
<text text-anchor="middle" x="4192.5" y="-491.8" font-family="Times,serif" font-size="14.00">label19:</text>
<text text-anchor="start" x="3956.5" y="-476.8" font-family="Times,serif" font-size="14.00">return;</text>
<text text-anchor="start" x="3956.5" y="-461.8" font-family="Times,serif" font-size="14.00">catch java.lang.Throwable from label02 to label10 with label11;</text>
<text text-anchor="start" x="3956.5" y="-446.8" font-family="Times,serif" font-size="14.00">catch java.lang.Throwable from label12 to label13 with label14;</text>
<text text-anchor="start" x="3956.5" y="-431.8" font-family="Times,serif" font-size="14.00">catch java.sql.SQLException from label01 to label16 with label17;</text>
<text text-anchor="start" x="3956.5" y="-416.8" font-family="Times,serif" font-size="14.00">catch java.io.IOException from label01 to label16 with label18;</text>
</g>
<!-- 22&#45;&gt;25 -->
<g id="edge30" class="edge">
<title>22&#45;&gt;25</title>
<path fill="none" stroke="black" d="M3806.65,-587.88C3817.87,-577.29 3831.94,-565.7 3846.5,-558 3875.25,-542.8 3906.7,-529.99 3938.55,-519.23"/>
<polygon fill="black" stroke="black" points="3940.05,-522.42 3948.45,-515.95 3937.85,-515.77 3940.05,-522.42"/>
</g>
<!-- 17 -->
<g id="node19" class="node">
<title>17</title>
<polygon fill="none" stroke="black" points="3918,-1147 3705,-1147 3705,-1079 3918,-1079 3918,-1147"/>
<text text-anchor="middle" x="3811.5" y="-1131.8" font-family="Times,serif" font-size="14.00">Block #17</text>
<text text-anchor="middle" x="3811.5" y="-1116.8" font-family="Times,serif" font-size="14.00">label11:</text>
<text text-anchor="start" x="3713" y="-1101.8" font-family="Times,serif" font-size="14.00">$r22 := @caughtexception;</text>
<text text-anchor="start" x="3713" y="-1086.8" font-family="Times,serif" font-size="14.00">if $r4 == null goto label15;</text>
</g>
<!-- 18 -->
<g id="node20" class="node">
<title>18</title>
<polygon fill="none" stroke="black" points="3905,-1028 3476,-1028 3476,-975 3905,-975 3905,-1028"/>
<text text-anchor="middle" x="3690.5" y="-1012.8" font-family="Times,serif" font-size="14.00">Block #18</text>
<text text-anchor="middle" x="3690.5" y="-997.8" font-family="Times,serif" font-size="14.00">label12:</text>
<text text-anchor="start" x="3484" y="-982.8" font-family="Times,serif" font-size="14.00">interfaceinvoke $r4.&lt;java.sql.Connection: void close()&gt;();</text>
</g>
<!-- 17&#45;&gt;18 -->
<g id="edge24" class="edge">
<title>17&#45;&gt;18</title>
<path fill="none" stroke="black" d="M3774.87,-1078.85C3759.59,-1065.02 3741.88,-1049 3726.65,-1035.22"/>
<polygon fill="black" stroke="black" points="3728.7,-1032.35 3718.94,-1028.24 3724.01,-1037.54 3728.7,-1032.35"/>
</g>
<!-- 21 -->
<g id="node21" class="node">
<title>21</title>
<polygon fill="none" stroke="black" points="3960,-790 3859,-790 3859,-737 3960,-737 3960,-790"/>
<text text-anchor="middle" x="3909.5" y="-774.8" font-family="Times,serif" font-size="14.00">Block #21</text>
<text text-anchor="middle" x="3909.5" y="-759.8" font-family="Times,serif" font-size="14.00">label15:</text>
<text text-anchor="start" x="3867" y="-744.8" font-family="Times,serif" font-size="14.00">throw $r22;</text>
</g>
<!-- 17&#45;&gt;21 -->
<g id="edge25" class="edge">
<title>17&#45;&gt;21</title>
<path fill="none" stroke="black" d="M3881.5,-1078.85C3894.75,-1069.22 3906.85,-1057.34 3914.5,-1043 3956.3,-964.68 3935.58,-855.48 3920.51,-799.96"/>
<polygon fill="black" stroke="black" points="3923.85,-798.91 3917.78,-790.23 3917.12,-800.81 3923.85,-798.91"/>
</g>
<!-- 19 -->
<g id="node22" class="node">
<title>19</title>
<polygon fill="none" stroke="black" points="3876.5,-916.5 3766.5,-916.5 3766.5,-863.5 3876.5,-863.5 3876.5,-916.5"/>
<text text-anchor="middle" x="3821.5" y="-901.3" font-family="Times,serif" font-size="14.00">Block #19</text>
<text text-anchor="middle" x="3821.5" y="-886.3" font-family="Times,serif" font-size="14.00">label13:</text>
<text text-anchor="start" x="3774.5" y="-871.3" font-family="Times,serif" font-size="14.00">goto label15;</text>
</g>
<!-- 18&#45;&gt;19 -->
<g id="edge26" class="edge">
<title>18&#45;&gt;19</title>
<path fill="none" stroke="black" d="M3721.21,-974.83C3739.69,-959.38 3763.37,-939.59 3783.08,-923.11"/>
<polygon fill="black" stroke="black" points="3785.55,-925.61 3790.98,-916.51 3781.06,-920.24 3785.55,-925.61"/>
</g>
<!-- 21&#45;&gt;22 -->
<g id="edge29" class="edge">
<title>21&#45;&gt;22</title>
<path fill="none" stroke="black" d="M3887.38,-736.89C3866.29,-712.49 3834.42,-675.6 3811.35,-648.89"/>
<polygon fill="black" stroke="black" points="3813.98,-646.58 3804.79,-641.31 3808.68,-651.16 3813.98,-646.58"/>
</g>
<!-- 19&#45;&gt;21 -->
<g id="edge27" class="edge">
<title>19&#45;&gt;21</title>
<path fill="none" stroke="black" d="M3839.73,-863.2C3852.95,-844.51 3870.95,-819.04 3885.36,-798.65"/>
<polygon fill="black" stroke="black" points="3888.38,-800.45 3891.29,-790.26 3882.66,-796.41 3888.38,-800.45"/>
</g>
<!-- 20 -->
<g id="node23" class="node">
<title>20</title>
<polygon fill="none" stroke="black" points="4639.5,-924 3961.5,-924 3961.5,-856 4639.5,-856 4639.5,-924"/>
<text text-anchor="middle" x="4300.5" y="-908.8" font-family="Times,serif" font-size="14.00">Block #20</text>
<text text-anchor="middle" x="4300.5" y="-893.8" font-family="Times,serif" font-size="14.00">label14:</text>
<text text-anchor="start" x="3969.5" y="-878.8" font-family="Times,serif" font-size="14.00">$r21 := @caughtexception;</text>
<text text-anchor="start" x="3969.5" y="-863.8" font-family="Times,serif" font-size="14.00">virtualinvoke $r22.&lt;java.lang.Throwable: void addSuppressed(java.lang.Throwable)&gt;($r21);</text>
</g>
<!-- 20&#45;&gt;21 -->
<g id="edge28" class="edge">
<title>20&#45;&gt;21</title>
<path fill="none" stroke="black" d="M4196.75,-855.96C4124.42,-832.93 4030.42,-803 3970.01,-783.77"/>
<polygon fill="black" stroke="black" points="3970.84,-780.36 3960.25,-780.66 3968.71,-787.03 3970.84,-780.36"/>
</g>
<!-- 23 -->
<g id="node25" class="node">
<title>23</title>
<polygon fill="none" stroke="black" points="4529.5,-671 3855.5,-671 3855.5,-558 4529.5,-558 4529.5,-671"/>
<text text-anchor="middle" x="4192.5" y="-655.8" font-family="Times,serif" font-size="14.00">Block #23</text>
<text text-anchor="middle" x="4192.5" y="-640.8" font-family="Times,serif" font-size="14.00">label:17</text>
<text text-anchor="start" x="3863.5" y="-625.8" font-family="Times,serif" font-size="14.00">$r19 := @caughtexception;</text>
<text text-anchor="start" x="3863.5" y="-610.8" font-family="Times,serif" font-size="14.00">$r20 = &lt;java.lang.System: java.io.PrintStream out&gt;;</text>
<text text-anchor="start" x="3863.5" y="-595.8" font-family="Times,serif" font-size="14.00">virtualinvoke $r20.&lt;java.io.PrintStream: void println(java.lang.String)&gt;(&quot;Database error:&quot;);</text>
<text text-anchor="start" x="3863.5" y="-580.8" font-family="Times,serif" font-size="14.00">virtualinvoke $r19.&lt;java.sql.SQLException: void printStackTrace()&gt;();</text>
<text text-anchor="start" x="3863.5" y="-565.8" font-family="Times,serif" font-size="14.00">goto label19;</text>
</g>
<!-- 23&#45;&gt;25 -->
<g id="edge31" class="edge">
<title>23&#45;&gt;25</title>
<path fill="none" stroke="black" d="M4192.5,-557.93C4192.5,-549.51 4192.5,-540.76 4192.5,-532.16"/>
<polygon fill="black" stroke="black" points="4196,-532.15 4192.5,-522.15 4189,-532.15 4196,-532.15"/>
</g>
<!-- 24 -->
<g id="node26" class="node">
<title>24</title>
<polygon fill="none" stroke="black" points="5203.5,-663.5 4547.5,-663.5 4547.5,-565.5 5203.5,-565.5 5203.5,-663.5"/>
<text text-anchor="middle" x="4875.5" y="-648.3" font-family="Times,serif" font-size="14.00">Block #24</text>
<text text-anchor="middle" x="4875.5" y="-633.3" font-family="Times,serif" font-size="14.00">label18:</text>
<text text-anchor="start" x="4555.5" y="-618.3" font-family="Times,serif" font-size="14.00">$r17 := @caughtexception;</text>
<text text-anchor="start" x="4555.5" y="-603.3" font-family="Times,serif" font-size="14.00">$r18 = &lt;java.lang.System: java.io.PrintStream out&gt;;</text>
<text text-anchor="start" x="4555.5" y="-588.3" font-family="Times,serif" font-size="14.00">virtualinvoke $r18.&lt;java.io.PrintStream: void println(java.lang.String)&gt;(&quot;File IO error:&quot;);</text>
<text text-anchor="start" x="4555.5" y="-573.3" font-family="Times,serif" font-size="14.00">virtualinvoke $r17.&lt;java.io.IOException: void printStackTrace()&gt;();</text>
</g>
<!-- 24&#45;&gt;25 -->
<g id="edge32" class="edge">
<title>24&#45;&gt;25</title>
<path fill="none" stroke="black" d="M4652.33,-565.47C4586.59,-551.32 4514.16,-535.73 4446.63,-521.2"/>
<polygon fill="black" stroke="black" points="4447.21,-517.74 4436.7,-519.06 4445.74,-524.58 4447.21,-517.74"/>
</g>
</g>
</svg>
