<?xml version="1.0" encoding="UTF-8" standalone="no"?>
<!DOCTYPE svg PUBLIC "-//W3C//DTD SVG 1.1//EN"
 "http://www.w3.org/Graphics/SVG/1.1/DTD/svg11.dtd">
<!-- Generated by graphviz version 2.43.0 (0)
 -->
<!-- Title: void export(java.lang.String) Pages: 1 -->
<svg width="3093pt" height="2749pt"
 viewBox="0.00 0.00 3092.50 2749.00" xmlns="http://www.w3.org/2000/svg" xmlns:xlink="http://www.w3.org/1999/xlink">
<g id="graph0" class="graph" transform="scale(1 1) rotate(0) translate(4 2745)">
<title>void export(java.lang.String)</title>
<polygon fill="white" stroke="transparent" points="-4,4 -4,-2745 3088.5,-2745 3088.5,4 -4,4"/>
<text text-anchor="middle" x="1542.25" y="-7.8" font-family="Times,serif" font-size="14.00">void export(java.lang.String)</text>
<!-- 0 -->
<g id="node1" class="node">
<title>0</title>
<polygon fill="gray" stroke="black" points="2439,-2741 2358,-2741 2358,-2703 2439,-2703 2439,-2741"/>
<text text-anchor="middle" x="2398.5" y="-2725.8" font-family="Times,serif" font-size="14.00">Block #0</text>
<text text-anchor="middle" x="2398.5" y="-2710.8" font-family="Times,serif" font-size="14.00">Entry</text>
</g>
<!-- 1 -->
<g id="node2" class="node">
<title>1</title>
<polygon fill="none" stroke="black" points="2779.5,-2667 2017.5,-2667 2017.5,-2374 2779.5,-2374 2779.5,-2667"/>
<text text-anchor="middle" x="2398.5" y="-2651.8" font-family="Times,serif" font-size="14.00">Block #1</text>
<text text-anchor="start" x="2025.5" y="-2636.8" font-family="Times,serif" font-size="14.00">java.lang.Throwable $r21, $r22;</text>
<text text-anchor="start" x="2025.5" y="-2621.8" font-family="Times,serif" font-size="14.00">java.sql.Connection $r4;</text>
<text text-anchor="start" x="2025.5" y="-2606.8" font-family="Times,serif" font-size="14.00">java.sql.SQLException $r19;</text>
<text text-anchor="start" x="2025.5" y="-2591.8" font-family="Times,serif" font-size="14.00">java.sql.ResultSet $r8;</text>
<text text-anchor="start" x="2025.5" y="-2576.8" font-family="Times,serif" font-size="14.00">int $i0, i1;</text>
<text text-anchor="start" x="2025.5" y="-2561.8" font-family="Times,serif" font-size="14.00">java.lang.String r1, $r2, $r3, $r5, $r6, $r15, $r16, r23, r24;</text>
<text text-anchor="start" x="2025.5" y="-2546.8" font-family="Times,serif" font-size="14.00">boolean $z0, $z1;</text>
<text text-anchor="start" x="2025.5" y="-2531.8" font-family="Times,serif" font-size="14.00">java.io.PrintStream $r18, $r20;</text>
<text text-anchor="start" x="2025.5" y="-2516.8" font-family="Times,serif" font-size="14.00">java.io.BufferedWriter $r9, $r11, $r12, $r13;</text>
<text text-anchor="start" x="2025.5" y="-2501.8" font-family="Times,serif" font-size="14.00">java.io.FileWriter $r10;</text>
<text text-anchor="start" x="2025.5" y="-2486.8" font-family="Times,serif" font-size="14.00">java.io.IOException $r17;</text>
<text text-anchor="start" x="2025.5" y="-2471.8" font-family="Times,serif" font-size="14.00">java.sql.Statement $r7;</text>
<text text-anchor="start" x="2025.5" y="-2456.8" font-family="Times,serif" font-size="14.00">java.lang.Object $r14;</text>
<text text-anchor="start" x="2025.5" y="-2441.8" font-family="Times,serif" font-size="14.00">db2csv.DB2CsvExporter r0;</text>
<text text-anchor="start" x="2025.5" y="-2426.8" font-family="Times,serif" font-size="14.00">r0 := @this: db2csv.DB2CsvExporter;</text>
<text text-anchor="start" x="2025.5" y="-2411.8" font-family="Times,serif" font-size="14.00">r1 := @parameter0: java.lang.String;</text>
<text text-anchor="start" x="2025.5" y="-2396.8" font-family="Times,serif" font-size="14.00">$r2 = virtualinvoke r1.&lt;java.lang.String: java.lang.String concat(java.lang.String)&gt;(&quot;_Export&quot;);</text>
<text text-anchor="start" x="2025.5" y="-2381.8" font-family="Times,serif" font-size="14.00">$r3 = virtualinvoke r0.&lt;db2csv.DB2CsvExporter: java.lang.String getFileName(java.lang.String)&gt;($r2);</text>
</g>
<!-- 0&#45;&gt;1 -->
<g id="edge1" class="edge">
<title>0&#45;&gt;1</title>
<path fill="none" stroke="black" d="M2398.5,-2702.94C2398.5,-2695.89 2398.5,-2687.13 2398.5,-2677.29"/>
<polygon fill="black" stroke="black" points="2402,-2677.11 2398.5,-2667.11 2395,-2677.11 2402,-2677.11"/>
</g>
<!-- 2 -->
<g id="node3" class="node">
<title>2</title>
<polygon fill="none" stroke="black" points="3084.5,-2338 1712.5,-2338 1712.5,-2285 3084.5,-2285 3084.5,-2338"/>
<text text-anchor="middle" x="2398.5" y="-2322.8" font-family="Times,serif" font-size="14.00">Block #2</text>
<text text-anchor="middle" x="2398.5" y="-2307.8" font-family="Times,serif" font-size="14.00">label01:</text>
<text text-anchor="start" x="1720.5" y="-2292.8" font-family="Times,serif" font-size="14.00">$r4 = staticinvoke &lt;java.sql.DriverManager: java.sql.Connection getConnection(java.lang.String,java.lang.String,java.lang.String)&gt;(&quot;jdbc:mysql://localhost:3306/tus&quot;, &quot;mabel&quot;, &quot;fff301155&quot;);</text>
</g>
<!-- 1&#45;&gt;2 -->
<g id="edge2" class="edge">
<title>1&#45;&gt;2</title>
<path fill="none" stroke="black" d="M2398.5,-2373.77C2398.5,-2364.53 2398.5,-2355.84 2398.5,-2348.06"/>
<polygon fill="black" stroke="black" points="2402,-2348.06 2398.5,-2338.06 2395,-2348.06 2402,-2348.06"/>
</g>
<!-- 3 -->
<g id="node4" class="node">
<title>3</title>
<polygon fill="none" stroke="black" points="2783.5,-2249 2013.5,-2249 2013.5,-2061 2783.5,-2061 2783.5,-2249"/>
<text text-anchor="middle" x="2398.5" y="-2233.8" font-family="Times,serif" font-size="14.00">Block #3</text>
<text text-anchor="middle" x="2398.5" y="-2218.8" font-family="Times,serif" font-size="14.00">label02:</text>
<text text-anchor="start" x="2021.5" y="-2203.8" font-family="Times,serif" font-size="14.00">$r5 = &quot;SELECT * FROM &quot;;</text>
<text text-anchor="start" x="2021.5" y="-2188.8" font-family="Times,serif" font-size="14.00">$r6 = virtualinvoke $r5.&lt;java.lang.String: java.lang.String concat(java.lang.String)&gt;(r1);</text>
<text text-anchor="start" x="2021.5" y="-2173.8" font-family="Times,serif" font-size="14.00">$r7 = interfaceinvoke $r4.&lt;java.sql.Connection: java.sql.Statement createStatement()&gt;();</text>
<text text-anchor="start" x="2021.5" y="-2158.8" font-family="Times,serif" font-size="14.00">$r8 = interfaceinvoke $r7.&lt;java.sql.Statement: java.sql.ResultSet executeQuery(java.lang.String)&gt;($r6);</text>
<text text-anchor="start" x="2021.5" y="-2143.8" font-family="Times,serif" font-size="14.00">$r9 = new java.io.BufferedWriter;</text>
<text text-anchor="start" x="2021.5" y="-2128.8" font-family="Times,serif" font-size="14.00">$r10 = new java.io.FileWriter;</text>
<text text-anchor="start" x="2021.5" y="-2113.8" font-family="Times,serif" font-size="14.00">specialinvoke $r10.&lt;java.io.FileWriter: void &lt;init&gt;(java.lang.String)&gt;($r3);</text>
<text text-anchor="start" x="2021.5" y="-2098.8" font-family="Times,serif" font-size="14.00">specialinvoke $r9.&lt;java.io.BufferedWriter: void &lt;init&gt;(java.io.Writer)&gt;($r10);</text>
<text text-anchor="start" x="2021.5" y="-2083.8" font-family="Times,serif" font-size="14.00">r0.&lt;db2csv.DB2CsvExporter: java.io.BufferedWriter fileWriter&gt; = $r9;</text>
<text text-anchor="start" x="2021.5" y="-2068.8" font-family="Times,serif" font-size="14.00">$i0 = virtualinvoke r0.&lt;db2csv.DB2CsvExporter: int writeHeaderLine(java.sql.ResultSet)&gt;($r8);</text>
</g>
<!-- 2&#45;&gt;3 -->
<g id="edge3" class="edge">
<title>2&#45;&gt;3</title>
<path fill="none" stroke="black" d="M2398.5,-2284.99C2398.5,-2277.5 2398.5,-2268.81 2398.5,-2259.54"/>
<polygon fill="black" stroke="black" points="2402,-2259.3 2398.5,-2249.3 2395,-2259.3 2402,-2259.3"/>
</g>
<!-- 4 -->
<g id="node5" class="node">
<title>4</title>
<polygon fill="lightgray" stroke="black" points="2641.5,-2025 2155.5,-2025 2155.5,-1927 2641.5,-1927 2641.5,-2025"/>
<text text-anchor="middle" x="2398.5" y="-2009.8" font-family="Times,serif" font-size="14.00">Block #4</text>
<text text-anchor="middle" x="2398.5" y="-1994.8" font-family="Times,serif" font-size="14.00">label03:</text>
<text text-anchor="start" x="2163.5" y="-1979.8" font-family="Times,serif" font-size="14.00">$z0 = interfaceinvoke $r8.&lt;java.sql.ResultSet: boolean next()&gt;();</text>
<text text-anchor="start" x="2163.5" y="-1964.8" font-family="Times,serif" font-size="14.00">if $z0 == 0 goto label09;</text>
<text text-anchor="start" x="2163.5" y="-1949.8" font-family="Times,serif" font-size="14.00">r23 = &quot;&quot;;</text>
<text text-anchor="start" x="2163.5" y="-1934.8" font-family="Times,serif" font-size="14.00">i1 = 2;</text>
</g>
<!-- 3&#45;&gt;4 -->
<g id="edge4" class="edge">
<title>3&#45;&gt;4</title>
<path fill="none" stroke="black" d="M2398.5,-2060.83C2398.5,-2052.17 2398.5,-2043.56 2398.5,-2035.35"/>
<polygon fill="black" stroke="black" points="2402,-2035.18 2398.5,-2025.18 2395,-2035.18 2402,-2035.18"/>
</g>
<!-- 5 -->
<g id="node6" class="node">
<title>5</title>
<polygon fill="none" stroke="black" points="2541.5,-1891 1915.5,-1891 1915.5,-1778 2541.5,-1778 2541.5,-1891"/>
<text text-anchor="middle" x="2228.5" y="-1875.8" font-family="Times,serif" font-size="14.00">Block #5</text>
<text text-anchor="middle" x="2228.5" y="-1860.8" font-family="Times,serif" font-size="14.00">label04:</text>
<text text-anchor="start" x="1923.5" y="-1845.8" font-family="Times,serif" font-size="14.00">if i1 &gt; $i0 goto label08;</text>
<text text-anchor="start" x="1923.5" y="-1830.8" font-family="Times,serif" font-size="14.00">$r14 = interfaceinvoke $r8.&lt;java.sql.ResultSet: java.lang.Object getObject(int)&gt;(i1);</text>
<text text-anchor="start" x="1923.5" y="-1815.8" font-family="Times,serif" font-size="14.00">r24 = &quot;&quot;;</text>
<text text-anchor="start" x="1923.5" y="-1800.8" font-family="Times,serif" font-size="14.00">if $r14 == null goto label05;</text>
<text text-anchor="start" x="1923.5" y="-1785.8" font-family="Times,serif" font-size="14.00">r24 = virtualinvoke $r14.&lt;java.lang.Object: java.lang.String toString()&gt;();</text>
</g>
<!-- 4&#45;&gt;5 -->
<g id="edge5" class="edge">
<title>4&#45;&gt;5</title>
<path fill="none" stroke="black" d="M2340,-1926.99C2328.41,-1917.49 2316.1,-1907.39 2304.05,-1897.49"/>
<polygon fill="black" stroke="black" points="2306.13,-1894.67 2296.18,-1891.03 2301.69,-1900.08 2306.13,-1894.67"/>
</g>
<!-- 10 -->
<g id="node11" class="node">
<title>10</title>
<polygon fill="none" stroke="black" points="2676,-1221 2143,-1221 2143,-1138 2676,-1138 2676,-1221"/>
<text text-anchor="middle" x="2409.5" y="-1205.8" font-family="Times,serif" font-size="14.00">Block #10</text>
<text text-anchor="middle" x="2409.5" y="-1190.8" font-family="Times,serif" font-size="14.00">label09:</text>
<text text-anchor="start" x="2151" y="-1175.8" font-family="Times,serif" font-size="14.00">interfaceinvoke $r7.&lt;java.sql.Statement: void close()&gt;();</text>
<text text-anchor="start" x="2151" y="-1160.8" font-family="Times,serif" font-size="14.00">$r11 = r0.&lt;db2csv.DB2CsvExporter: java.io.BufferedWriter fileWriter&gt;;</text>
<text text-anchor="start" x="2151" y="-1145.8" font-family="Times,serif" font-size="14.00">virtualinvoke $r11.&lt;java.io.BufferedWriter: void close()&gt;();</text>
</g>
<!-- 4&#45;&gt;10 -->
<g id="edge6" class="edge">
<title>4&#45;&gt;10</title>
<path fill="none" stroke="black" d="M2515.26,-1926.87C2528.97,-1916.86 2541.32,-1904.99 2550.5,-1891 2598.78,-1817.47 2569.5,-1781.96 2569.5,-1694 2569.5,-1694 2569.5,-1694 2569.5,-1439 2569.5,-1357.67 2595.67,-1324.63 2550.5,-1257 2542.85,-1245.54 2532.88,-1235.65 2521.79,-1227.15"/>
<polygon fill="black" stroke="black" points="2523.69,-1224.21 2513.52,-1221.21 2519.6,-1229.89 2523.69,-1224.21"/>
</g>
<!-- 6 -->
<g id="node7" class="node">
<title>6</title>
<polygon fill="none" stroke="black" points="2363,-1742 0,-1742 0,-1644 2363,-1644 2363,-1742"/>
<text text-anchor="middle" x="1181.5" y="-1726.8" font-family="Times,serif" font-size="14.00">Block #6</text>
<text text-anchor="middle" x="1181.5" y="-1711.8" font-family="Times,serif" font-size="14.00">label05:</text>
<text text-anchor="start" x="8" y="-1696.8" font-family="Times,serif" font-size="14.00">$z1 = $r14 instanceof java.lang.String;</text>
<text text-anchor="start" x="8" y="-1681.8" font-family="Times,serif" font-size="14.00">if $z1 == 0 goto label06;</text>
<text text-anchor="start" x="8" y="-1666.8" font-family="Times,serif" font-size="14.00">$r16 = virtualinvoke r0.&lt;db2csv.DB2CsvExporter: java.lang.String escapeDoubleQuotes(java.lang.String)&gt;(r24);</text>
<text text-anchor="start" x="8" y="-1651.8" font-family="Times,serif" font-size="14.00">r24 = dynamicinvoke &quot;makeConcatWithConstants&quot; &lt;java.lang.String (java.lang.String)&gt;($r16) &lt;java.lang.invoke.StringConcatFactory: java.lang.invoke.CallSite makeConcatWithConstants(java.lang.invoke.MethodHandles$Lookup,java.lang.String,java.lang.invoke.MethodType,java.lang.String,java.lang.Object[])&gt;(&quot;\&quot;\u0001\&quot;&quot;);</text>
</g>
<!-- 5&#45;&gt;6 -->
<g id="edge7" class="edge">
<title>5&#45;&gt;6</title>
<path fill="none" stroke="black" d="M1915.43,-1791.79C1801.15,-1776.56 1670.82,-1759.2 1552.02,-1743.37"/>
<polygon fill="black" stroke="black" points="1552.4,-1739.89 1542.03,-1742.04 1551.48,-1746.83 1552.4,-1739.89"/>
</g>
<!-- 9 -->
<g id="node10" class="node">
<title>9</title>
<polygon fill="none" stroke="black" points="2541,-1370 1960,-1370 1960,-1257 2541,-1257 2541,-1370"/>
<text text-anchor="middle" x="2250.5" y="-1354.8" font-family="Times,serif" font-size="14.00">Block #9</text>
<text text-anchor="middle" x="2250.5" y="-1339.8" font-family="Times,serif" font-size="14.00">label08:</text>
<text text-anchor="start" x="1968" y="-1324.8" font-family="Times,serif" font-size="14.00">$r12 = r0.&lt;db2csv.DB2CsvExporter: java.io.BufferedWriter fileWriter&gt;;</text>
<text text-anchor="start" x="1968" y="-1309.8" font-family="Times,serif" font-size="14.00">virtualinvoke $r12.&lt;java.io.BufferedWriter: void newLine()&gt;();</text>
<text text-anchor="start" x="1968" y="-1294.8" font-family="Times,serif" font-size="14.00">$r13 = r0.&lt;db2csv.DB2CsvExporter: java.io.BufferedWriter fileWriter&gt;;</text>
<text text-anchor="start" x="1968" y="-1279.8" font-family="Times,serif" font-size="14.00">virtualinvoke $r13.&lt;java.io.BufferedWriter: void write(java.lang.String)&gt;(r23);</text>
<text text-anchor="start" x="1968" y="-1264.8" font-family="Times,serif" font-size="14.00">goto label03;</text>
</g>
<!-- 5&#45;&gt;9 -->
<g id="edge8" class="edge">
<title>5&#45;&gt;9</title>
<path fill="none" stroke="black" d="M2342.62,-1777.8C2354.54,-1767.52 2365.01,-1755.63 2372.5,-1742 2437.96,-1622.85 2355.59,-1465.29 2297.83,-1378.57"/>
<polygon fill="black" stroke="black" points="2300.64,-1376.48 2292.14,-1370.15 2294.83,-1380.4 2300.64,-1376.48"/>
</g>
<!-- 7 -->
<g id="node8" class="node">
<title>7</title>
<polygon fill="none" stroke="black" points="1941,-1608 1266,-1608 1266,-1510 1941,-1510 1941,-1608"/>
<text text-anchor="middle" x="1603.5" y="-1592.8" font-family="Times,serif" font-size="14.00">Block #7</text>
<text text-anchor="middle" x="1603.5" y="-1577.8" font-family="Times,serif" font-size="14.00">label06:</text>
<text text-anchor="start" x="1274" y="-1562.8" font-family="Times,serif" font-size="14.00">$r15 = virtualinvoke r23.&lt;java.lang.String: java.lang.String concat(java.lang.String)&gt;(r24);</text>
<text text-anchor="start" x="1274" y="-1547.8" font-family="Times,serif" font-size="14.00">r23 = $r15;</text>
<text text-anchor="start" x="1274" y="-1532.8" font-family="Times,serif" font-size="14.00">if i1 == $i0 goto label07;</text>
<text text-anchor="start" x="1274" y="-1517.8" font-family="Times,serif" font-size="14.00">r23 = virtualinvoke $r15.&lt;java.lang.String: java.lang.String concat(java.lang.String)&gt;(&quot;,&quot;);</text>
</g>
<!-- 6&#45;&gt;7 -->
<g id="edge9" class="edge">
<title>6&#45;&gt;7</title>
<path fill="none" stroke="black" d="M1335.05,-1643.97C1369.19,-1633.29 1405.5,-1621.93 1440.03,-1611.13"/>
<polygon fill="black" stroke="black" points="1441.22,-1614.43 1449.72,-1608.1 1439.13,-1607.75 1441.22,-1614.43"/>
</g>
<!-- 8 -->
<g id="node9" class="node">
<title>8</title>
<polygon fill="none" stroke="black" points="1700.5,-1474 1590.5,-1474 1590.5,-1406 1700.5,-1406 1700.5,-1474"/>
<text text-anchor="middle" x="1645.5" y="-1458.8" font-family="Times,serif" font-size="14.00">Block #8</text>
<text text-anchor="middle" x="1645.5" y="-1443.8" font-family="Times,serif" font-size="14.00">label07:</text>
<text text-anchor="start" x="1598.5" y="-1428.8" font-family="Times,serif" font-size="14.00">i1 = i1 + 1;</text>
<text text-anchor="start" x="1598.5" y="-1413.8" font-family="Times,serif" font-size="14.00">goto label04;</text>
</g>
<!-- 7&#45;&gt;8 -->
<g id="edge10" class="edge">
<title>7&#45;&gt;8</title>
<path fill="none" stroke="black" d="M1620.83,-1509.74C1623.91,-1501.14 1627.11,-1492.24 1630.13,-1483.81"/>
<polygon fill="black" stroke="black" points="1633.51,-1484.77 1633.59,-1474.17 1626.92,-1482.4 1633.51,-1484.77"/>
</g>
<!-- 8&#45;&gt;9 -->
<g id="edge11" class="edge">
<title>8&#45;&gt;9</title>
<path fill="none" stroke="black" d="M1700.52,-1427.68C1762.68,-1414.89 1868.54,-1393.1 1970.89,-1372.04"/>
<polygon fill="black" stroke="black" points="1971.69,-1375.45 1980.78,-1370 1970.28,-1368.59 1971.69,-1375.45"/>
</g>
<!-- 9&#45;&gt;10 -->
<g id="edge12" class="edge">
<title>9&#45;&gt;10</title>
<path fill="none" stroke="black" d="M2317.47,-1256.9C2329.19,-1247.17 2341.29,-1237.13 2352.7,-1227.65"/>
<polygon fill="black" stroke="black" points="2355.02,-1230.27 2360.48,-1221.19 2350.55,-1224.89 2355.02,-1230.27"/>
</g>
<!-- 11 -->
<g id="node12" class="node">
<title>11</title>
<polygon fill="none" stroke="black" points="2624,-1102 2195,-1102 2195,-1019 2624,-1019 2624,-1102"/>
<text text-anchor="middle" x="2409.5" y="-1086.8" font-family="Times,serif" font-size="14.00">Block #11</text>
<text text-anchor="middle" x="2409.5" y="-1071.8" font-family="Times,serif" font-size="14.00">label10:</text>
<text text-anchor="start" x="2203" y="-1056.8" font-family="Times,serif" font-size="14.00">if $r4 == null goto label16;</text>
<text text-anchor="start" x="2203" y="-1041.8" font-family="Times,serif" font-size="14.00">interfaceinvoke $r4.&lt;java.sql.Connection: void close()&gt;();</text>
<text text-anchor="start" x="2203" y="-1026.8" font-family="Times,serif" font-size="14.00">goto label16;</text>
</g>
<!-- 10&#45;&gt;11 -->
<g id="edge13" class="edge">
<title>10&#45;&gt;11</title>
<path fill="none" stroke="black" d="M2409.5,-1137.91C2409.5,-1129.65 2409.5,-1120.86 2409.5,-1112.3"/>
<polygon fill="black" stroke="black" points="2413,-1112.02 2409.5,-1102.02 2406,-1112.02 2413,-1112.02"/>
</g>
<!-- 12 -->
<g id="node13" class="node">
<title>12</title>
<polygon fill="none" stroke="black" points="2516,-983 2303,-983 2303,-915 2516,-915 2516,-983"/>
<text text-anchor="middle" x="2409.5" y="-967.8" font-family="Times,serif" font-size="14.00">Block #12</text>
<text text-anchor="middle" x="2409.5" y="-952.8" font-family="Times,serif" font-size="14.00">label11:</text>
<text text-anchor="start" x="2311" y="-937.8" font-family="Times,serif" font-size="14.00">$r22 := @caughtexception;</text>
<text text-anchor="start" x="2311" y="-922.8" font-family="Times,serif" font-size="14.00">if $r4 == null goto label15;</text>
</g>
<!-- 11&#45;&gt;12 -->
<g id="edge14" class="edge">
<title>11&#45;&gt;12</title>
<path fill="none" stroke="black" d="M2409.5,-1018.73C2409.5,-1010.52 2409.5,-1001.86 2409.5,-993.56"/>
<polygon fill="black" stroke="black" points="2413,-993.3 2409.5,-983.3 2406,-993.3 2413,-993.3"/>
</g>
<!-- 13 -->
<g id="node14" class="node">
<title>13</title>
<polygon fill="none" stroke="black" points="2624,-879 2195,-879 2195,-826 2624,-826 2624,-879"/>
<text text-anchor="middle" x="2409.5" y="-863.8" font-family="Times,serif" font-size="14.00">Block #13</text>
<text text-anchor="middle" x="2409.5" y="-848.8" font-family="Times,serif" font-size="14.00">label12:</text>
<text text-anchor="start" x="2203" y="-833.8" font-family="Times,serif" font-size="14.00">interfaceinvoke $r4.&lt;java.sql.Connection: void close()&gt;();</text>
</g>
<!-- 12&#45;&gt;13 -->
<g id="edge15" class="edge">
<title>12&#45;&gt;13</title>
<path fill="none" stroke="black" d="M2409.5,-914.95C2409.5,-906.72 2409.5,-897.85 2409.5,-889.48"/>
<polygon fill="black" stroke="black" points="2413,-889.24 2409.5,-879.24 2406,-889.24 2413,-889.24"/>
</g>
<!-- 14 -->
<g id="node15" class="node">
<title>14</title>
<polygon fill="none" stroke="black" points="2464.5,-790 2354.5,-790 2354.5,-737 2464.5,-737 2464.5,-790"/>
<text text-anchor="middle" x="2409.5" y="-774.8" font-family="Times,serif" font-size="14.00">Block 14#</text>
<text text-anchor="middle" x="2409.5" y="-759.8" font-family="Times,serif" font-size="14.00">label13:</text>
<text text-anchor="start" x="2362.5" y="-744.8" font-family="Times,serif" font-size="14.00">goto label15;</text>
</g>
<!-- 13&#45;&gt;14 -->
<g id="edge16" class="edge">
<title>13&#45;&gt;14</title>
<path fill="none" stroke="black" d="M2409.5,-825.87C2409.5,-817.89 2409.5,-808.93 2409.5,-800.38"/>
<polygon fill="black" stroke="black" points="2413,-800.25 2409.5,-790.25 2406,-800.25 2413,-800.25"/>
</g>
<!-- 15 -->
<g id="node16" class="node">
<title>15</title>
<polygon fill="none" stroke="black" points="2748.5,-701 2070.5,-701 2070.5,-633 2748.5,-633 2748.5,-701"/>
<text text-anchor="middle" x="2409.5" y="-685.8" font-family="Times,serif" font-size="14.00">Block #15</text>
<text text-anchor="middle" x="2409.5" y="-670.8" font-family="Times,serif" font-size="14.00">label14:</text>
<text text-anchor="start" x="2078.5" y="-655.8" font-family="Times,serif" font-size="14.00">$r21 := @caughtexception;</text>
<text text-anchor="start" x="2078.5" y="-640.8" font-family="Times,serif" font-size="14.00">virtualinvoke $r22.&lt;java.lang.Throwable: void addSuppressed(java.lang.Throwable)&gt;($r21);</text>
</g>
<!-- 14&#45;&gt;15 -->
<g id="edge17" class="edge">
<title>14&#45;&gt;15</title>
<path fill="none" stroke="black" d="M2409.5,-736.68C2409.5,-728.82 2409.5,-719.96 2409.5,-711.29"/>
<polygon fill="black" stroke="black" points="2413,-711.25 2409.5,-701.25 2406,-711.25 2413,-711.25"/>
</g>
<!-- 16 -->
<g id="node17" class="node">
<title>16</title>
<polygon fill="none" stroke="black" points="2460,-597 2359,-597 2359,-544 2460,-544 2460,-597"/>
<text text-anchor="middle" x="2409.5" y="-581.8" font-family="Times,serif" font-size="14.00">Block #16</text>
<text text-anchor="middle" x="2409.5" y="-566.8" font-family="Times,serif" font-size="14.00">label:15</text>
<text text-anchor="start" x="2367" y="-551.8" font-family="Times,serif" font-size="14.00">throw $r22;</text>
</g>
<!-- 15&#45;&gt;16 -->
<g id="edge18" class="edge">
<title>15&#45;&gt;16</title>
<path fill="none" stroke="black" d="M2409.5,-632.95C2409.5,-624.72 2409.5,-615.85 2409.5,-607.48"/>
<polygon fill="black" stroke="black" points="2413,-607.24 2409.5,-597.24 2406,-607.24 2413,-607.24"/>
</g>
<!-- 17 -->
<g id="node18" class="node">
<title>17</title>
<polygon fill="none" stroke="black" points="2464.5,-508 2354.5,-508 2354.5,-455 2464.5,-455 2464.5,-508"/>
<text text-anchor="middle" x="2409.5" y="-492.8" font-family="Times,serif" font-size="14.00">Block #17</text>
<text text-anchor="middle" x="2409.5" y="-477.8" font-family="Times,serif" font-size="14.00">label16:</text>
<text text-anchor="start" x="2362.5" y="-462.8" font-family="Times,serif" font-size="14.00">goto label19;</text>
</g>
<!-- 16&#45;&gt;17 -->
<g id="edge19" class="edge">
<title>16&#45;&gt;17</title>
<path fill="none" stroke="black" d="M2409.5,-543.87C2409.5,-535.89 2409.5,-526.93 2409.5,-518.38"/>
<polygon fill="black" stroke="black" points="2413,-518.25 2409.5,-508.25 2406,-518.25 2413,-518.25"/>
</g>
<!-- 18 -->
<g id="node19" class="node">
<title>18</title>
<polygon fill="none" stroke="black" points="2746.5,-419 2072.5,-419 2072.5,-306 2746.5,-306 2746.5,-419"/>
<text text-anchor="middle" x="2409.5" y="-403.8" font-family="Times,serif" font-size="14.00">Block #18</text>
<text text-anchor="middle" x="2409.5" y="-388.8" font-family="Times,serif" font-size="14.00">label17:</text>
<text text-anchor="start" x="2080.5" y="-373.8" font-family="Times,serif" font-size="14.00">$r19 := @caughtexception;</text>
<text text-anchor="start" x="2080.5" y="-358.8" font-family="Times,serif" font-size="14.00">$r20 = &lt;java.lang.System: java.io.PrintStream out&gt;;</text>
<text text-anchor="start" x="2080.5" y="-343.8" font-family="Times,serif" font-size="14.00">virtualinvoke $r20.&lt;java.io.PrintStream: void println(java.lang.String)&gt;(&quot;Database error:&quot;);</text>
<text text-anchor="start" x="2080.5" y="-328.8" font-family="Times,serif" font-size="14.00">virtualinvoke $r19.&lt;java.sql.SQLException: void printStackTrace()&gt;();</text>
<text text-anchor="start" x="2080.5" y="-313.8" font-family="Times,serif" font-size="14.00">goto label19;</text>
</g>
<!-- 17&#45;&gt;18 -->
<g id="edge20" class="edge">
<title>17&#45;&gt;18</title>
<path fill="none" stroke="black" d="M2409.5,-454.82C2409.5,-447.2 2409.5,-438.48 2409.5,-429.51"/>
<polygon fill="black" stroke="black" points="2413,-429.34 2409.5,-419.34 2406,-429.34 2413,-429.34"/>
</g>
<!-- 19 -->
<g id="node20" class="node">
<title>19</title>
<polygon fill="none" stroke="black" points="2737.5,-270 2081.5,-270 2081.5,-172 2737.5,-172 2737.5,-270"/>
<text text-anchor="middle" x="2409.5" y="-254.8" font-family="Times,serif" font-size="14.00">Block #19</text>
<text text-anchor="middle" x="2409.5" y="-239.8" font-family="Times,serif" font-size="14.00">label:18</text>
<text text-anchor="start" x="2089.5" y="-224.8" font-family="Times,serif" font-size="14.00">$r17 := @caughtexception;</text>
<text text-anchor="start" x="2089.5" y="-209.8" font-family="Times,serif" font-size="14.00">$r18 = &lt;java.lang.System: java.io.PrintStream out&gt;;</text>
<text text-anchor="start" x="2089.5" y="-194.8" font-family="Times,serif" font-size="14.00">virtualinvoke $r18.&lt;java.io.PrintStream: void println(java.lang.String)&gt;(&quot;File IO error:&quot;);</text>
<text text-anchor="start" x="2089.5" y="-179.8" font-family="Times,serif" font-size="14.00">virtualinvoke $r17.&lt;java.io.IOException: void printStackTrace()&gt;();</text>
</g>
<!-- 18&#45;&gt;19 -->
<g id="edge21" class="edge">
<title>18&#45;&gt;19</title>
<path fill="none" stroke="black" d="M2409.5,-305.97C2409.5,-297.54 2409.5,-288.82 2409.5,-280.34"/>
<polygon fill="black" stroke="black" points="2413,-280.14 2409.5,-270.14 2406,-280.14 2413,-280.14"/>
</g>
<!-- 20 -->
<g id="node21" class="node">
<title>20</title>
<polygon fill="none" stroke="black" points="2653.5,-136 2165.5,-136 2165.5,-23 2653.5,-23 2653.5,-136"/>
<text text-anchor="middle" x="2409.5" y="-120.8" font-family="Times,serif" font-size="14.00">Block #20</text>
<text text-anchor="middle" x="2409.5" y="-105.8" font-family="Times,serif" font-size="14.00">label:19</text>
<text text-anchor="start" x="2173.5" y="-90.8" font-family="Times,serif" font-size="14.00">return;</text>
<text text-anchor="start" x="2173.5" y="-75.8" font-family="Times,serif" font-size="14.00">catch java.lang.Throwable from label02 to label10 with label11;</text>
<text text-anchor="start" x="2173.5" y="-60.8" font-family="Times,serif" font-size="14.00">catch java.lang.Throwable from label12 to label13 with label14;</text>
<text text-anchor="start" x="2173.5" y="-45.8" font-family="Times,serif" font-size="14.00">catch java.sql.SQLException from label01 to label16 with label17;</text>
<text text-anchor="start" x="2173.5" y="-30.8" font-family="Times,serif" font-size="14.00">catch java.io.IOException from label01 to label16 with label18;</text>
</g>
<!-- 19&#45;&gt;20 -->
<g id="edge22" class="edge">
<title>19&#45;&gt;20</title>
<path fill="none" stroke="black" d="M2409.5,-171.99C2409.5,-163.72 2409.5,-155 2409.5,-146.35"/>
<polygon fill="black" stroke="black" points="2413,-146.28 2409.5,-136.28 2406,-146.28 2413,-146.28"/>
</g>
</g>
</svg>
